<svg width="115" height="80" viewBox="0 0 115 80" fill="none" xmlns="http://www.w3.org/2000/svg">
<rect x="0.5" y="0.5" width="114" height="79" rx="9.5" fill="url(#paint0_linear_4761_2807)"/>
<rect x="0.5" y="0.5" width="114" height="79" rx="9.5" stroke="#E8E8E8"/>
<rect x="0.5" y="0.5" width="114" height="79" rx="9.5" stroke="#EDEDED"/>
<path d="M44.6773 45.5988C46.5864 47.9687 48.4062 47.9186 49.8748 47.2759C51.2165 46.6882 51.9297 45.0973 51.693 43.3277C51.6569 43.3434 51.6005 43.3496 51.5911 43.3731C50.7431 45.475 48.5629 45.7728 46.8513 45.3104C45.3309 44.9013 44.5535 43.801 44.3074 42.3057C44.2223 41.7508 44.1809 41.19 44.1836 40.6286C44.1695 38.3637 44.1836 36.1004 44.1836 33.7775H46.8936C46.903 33.9813 46.9218 34.2007 46.9218 34.4202C46.9218 36.2728 46.9218 38.1239 46.9218 39.975C46.9226 40.3696 46.9524 40.7635 47.0112 41.1537C47.2369 42.6333 48.1428 43.2054 49.6162 42.8167C50.8121 42.5032 51.6083 41.4139 51.6852 39.7869C51.7667 38.0628 51.7447 36.3387 51.7667 34.6145C51.7667 34.3496 51.7667 34.0848 51.7667 33.7744H54.4061C54.4376 33.8706 54.4586 33.9699 54.4688 34.0706C54.4688 37.4405 54.5503 40.8104 54.4344 44.1788C54.2964 48.1537 50.903 50.5957 46.9924 49.6646C45.693 49.3512 44.5034 48.8324 43.5645 47.8402C43.2886 47.5487 43.2353 47.3198 43.5347 46.9969C43.9328 46.5706 44.2761 46.0988 44.6773 45.5988Z" fill="black"/>
<path d="M28.3404 33.8934V35.6175C27.5018 34.395 26.2902 33.627 24.9439 33.627C22.4125 33.627 20.3624 36.3338 20.3624 39.674C20.3624 43.0141 22.4204 45.7194 24.9439 45.7194C26.2902 45.7194 27.5018 44.9498 28.3404 43.7272V45.7194H31.0943V33.8934H28.3404ZM25.7323 43.2366C24.237 43.2366 23.0254 41.641 23.0254 39.6708C23.0254 37.7006 24.237 36.105 25.7323 36.105C27.2275 36.105 28.4407 37.7022 28.4407 39.6708C28.4407 41.6395 27.2291 43.2366 25.7323 43.2366Z" fill="black"/>
<path d="M76.4076 33.8934V35.6175C75.5691 34.395 74.3575 33.627 73.0095 33.627C70.4798 33.627 68.428 36.3338 68.428 39.674C68.428 43.0141 70.4798 45.7225 73.0095 45.7225C74.3575 45.7225 75.5691 44.9529 76.4076 43.7304V45.7225H79.16V33.8934H76.4076ZM73.7995 43.2366C72.3042 43.2366 71.091 41.641 71.091 39.6708C71.091 37.7006 72.3042 36.105 73.7995 36.105C75.2948 36.105 76.5079 37.7022 76.5079 39.6708C76.5079 41.6395 75.2948 43.2366 73.7995 43.2366Z" fill="black"/>
<path d="M105.248 33.8934V35.6175C104.409 34.395 103.198 33.627 101.85 33.627C99.3198 33.627 97.2681 36.3338 97.2681 39.674C97.2681 43.0141 99.3198 45.7225 101.85 45.7225C103.198 45.7225 104.409 44.9529 105.248 43.7304V45.7225H108V33.8934H105.248ZM102.64 43.2366C101.144 43.2366 99.9311 41.641 99.9311 39.6708C99.9311 37.7006 101.144 36.105 102.64 36.105C104.135 36.105 105.348 37.7022 105.348 39.6708C105.348 41.6395 104.135 43.2366 102.64 43.2366Z" fill="black"/>
<path d="M84.0283 33.624H81.2007V45.7196H84.0283V33.624Z" fill="black"/>
<path d="M82.6161 32.489C83.5796 32.489 84.3606 31.708 84.3606 30.7445C84.3606 29.781 83.5796 29 82.6161 29C81.6526 29 80.8716 29.781 80.8716 30.7445C80.8716 31.708 81.6526 32.489 82.6161 32.489Z" fill="#26B15D"/>
<path d="M62.7274 33.8184C61.4092 33.8184 60.2196 34.5096 59.3669 35.6177V33.624H56.5989V50.0049H59.3669V43.9343C60.2196 45.0441 61.4045 45.7337 62.7274 45.7337C65.3183 45.7337 67.4202 43.0691 67.4202 39.7776C67.4202 36.4861 65.3183 33.8184 62.7274 33.8184ZM61.9437 43.2368C60.776 43.2368 59.7776 42.3372 59.3716 41.0629V38.5206C59.7776 37.2463 60.7822 36.3466 61.9437 36.3466C63.4735 36.3466 64.7117 37.8889 64.7117 39.7948C64.7117 41.7008 63.4688 43.2368 61.939 43.2368H61.9437Z" fill="black"/>
<path d="M40.6397 37.912L42.6099 36.8806C42.5801 35.9653 41.9736 35.1377 41.1993 34.6502C40.425 34.1628 39.5002 33.9684 38.588 33.8744C37.1178 33.7176 35.5394 33.8415 34.3184 34.6738C33.0974 35.506 32.3921 37.2208 33.0739 38.5342C33.6319 39.6095 34.8921 40.111 36.0817 40.3415C37.2714 40.5719 38.5237 40.6314 39.5974 41.1925C39.8623 41.332 40.1381 41.5389 40.1664 41.8383C40.1946 42.1377 39.9845 42.3712 39.7667 42.553C39.3302 42.9176 38.8075 43.164 38.2485 43.2688C37.6895 43.3735 37.1131 43.333 36.5742 43.1512C36.0354 42.9694 35.5522 42.6523 35.171 42.2303C34.7897 41.8084 34.5232 41.2956 34.3968 40.7411L32.2181 41.8791C31.7589 42.1236 33.4595 44.2302 33.6773 44.4151C35.2886 45.8258 37.7228 46.0405 39.7071 45.3822C41.1037 44.9198 42.425 43.8712 42.704 42.4276C42.7887 41.9703 42.767 41.4995 42.6406 41.0519C42.5142 40.6042 42.2865 40.1917 41.9751 39.8462C41.3027 39.1126 40.309 38.7615 39.3325 38.5656C38.356 38.3697 37.3498 38.2991 36.4015 37.9966C35.9908 37.865 35.5253 37.5891 35.5457 37.1581C35.5645 36.7584 35.9955 36.5217 36.3764 36.3979C37.1805 36.1361 38.0566 36.0264 38.8701 36.2553C39.6836 36.4841 40.414 37.1001 40.6397 37.912Z" fill="black"/>
<path d="M93.8935 37.912L95.8637 36.8806C95.8339 35.9653 95.2258 35.1377 94.4531 34.6502C93.6803 34.1628 92.754 33.9684 91.8418 33.8744C90.3716 33.7176 88.7932 33.8415 87.5722 34.6738C86.3512 35.506 85.6459 37.2208 86.3277 38.5342C86.8857 39.6095 88.1459 40.111 89.3339 40.3415C90.522 40.5719 91.7775 40.6314 92.8512 41.1925C93.1161 41.332 93.3919 41.5389 93.4201 41.8383C93.4483 42.1377 93.2383 42.3712 93.0205 42.553C92.584 42.9176 92.0613 43.164 91.5023 43.2688C90.9433 43.3735 90.3668 43.333 89.828 43.1512C89.2892 42.9694 88.806 42.6523 88.4247 42.2303C88.0435 41.8084 87.7769 41.2956 87.6506 40.7411L85.4719 41.8791C85.0126 42.1236 86.7133 44.2302 86.9311 44.4151C88.5424 45.8258 90.9766 46.0405 92.9609 45.3822C94.3574 44.9198 95.6788 43.8712 95.9577 42.4276C96.042 41.9703 96.0201 41.4997 95.8937 41.0521C95.7674 40.6045 95.5399 40.1919 95.2289 39.8462C94.5565 39.1126 93.5628 38.7615 92.5863 38.5656C91.6098 38.3697 90.6035 38.2991 89.6553 37.9966C89.2446 37.865 88.7775 37.5891 88.7995 37.1581C88.8183 36.7584 89.2493 36.5217 89.6302 36.3979C90.4343 36.1361 91.3104 36.0264 92.1239 36.2553C92.9374 36.4841 93.6709 37.1001 93.8935 37.912Z" fill="black"/>
<path d="M18.016 35.685C18.016 35.685 15.9689 32.5502 11.516 34.1176C11.516 34.1176 9.10846 34.7806 8.02539 38.6317C8.02539 38.6317 10.2527 42.1818 15.668 41.0392C15.668 41.0408 20.3012 39.837 18.016 35.685ZM15.0959 38.8198C14.1915 39.2477 12.7997 39.1332 11.8561 38.8872C11.7887 38.8699 10.5567 38.4357 10.6132 38.3292C11.5175 36.6568 13.8843 35.1144 15.5348 36.8307C15.7046 36.9953 15.8288 37.201 15.8953 37.4279C16.0363 37.9937 15.621 38.5752 15.0959 38.8229V38.8198Z" fill="black"/>
<path d="M8.02538 39.7866C8.02538 39.7866 7.48463 43.9888 11.3953 45.3728C15.3059 46.7568 18.3764 44.2286 19.2793 42.6644L17.052 41.3415C17.052 41.3415 15.3075 44.9465 10.3122 42.6048C10.3122 42.6048 8.50657 41.5405 8.02538 39.7866Z" fill="#26B15D"/>
<defs>
<linearGradient id="paint0_linear_4761_2807" x1="57" y1="5" x2="57" y2="80" gradientUnits="userSpaceOnUse">
<stop stop-color="#F5F5F5"/>
<stop offset="1" stop-color="white"/>
</linearGradient>
</defs>
</svg>
