<svg width="115" height="80" viewBox="0 0 115 80" fill="none" xmlns="http://www.w3.org/2000/svg">
<rect x="0.5" y="0.5" width="114" height="79" rx="9.5" fill="url(#paint0_linear)"/>
<rect x="0.5" y="0.5" width="114" height="79" rx="9.5" stroke="#E8E8E8"/>
<rect x="0.5" y="0.5" width="114" height="79" rx="9.5" stroke="#EDEDED"/>
<path d="M103.361 38.3118C102.807 38.6456 102.221 38.9211 101.611 39.133C100.947 39.3937 100.251 39.5673 99.5417 39.6496C99.2397 39.6992 98.9344 39.7416 98.6198 39.7727H98.6099C95.7092 40.0217 93.231 39.3972 91.8151 38.0641C91.8012 38.0555 91.7926 38.0383 91.778 38.0283C91.778 38.0813 91.778 38.1316 91.77 38.1886C91.7767 38.7826 91.9972 39.3542 92.3926 39.7979C93.5423 41.1171 95.7535 41.8377 98.3238 41.8774C100.036 41.8887 101.598 41.5661 102.794 40.9913C103.359 40.7298 103.867 40.3593 104.289 39.9012C104.693 39.4641 104.924 38.8946 104.94 38.2985C104.941 37.9257 104.851 37.5584 104.679 37.2277C104.295 37.6514 103.851 38.0166 103.361 38.3118ZM98.3059 36.4886C95.5946 36.6965 93.2595 36.1899 91.8078 35.0329C91.8512 35.5736 92.0676 36.0859 92.425 36.4939C93.5734 37.8151 95.7873 38.531 98.3549 38.5734C100.07 38.5846 101.631 38.2621 102.825 37.6859C103.392 37.4265 103.901 37.0558 104.322 36.5959C104.722 36.158 104.952 35.5909 104.969 34.9978C104.969 34.5329 104.83 34.0786 104.572 33.6932C104.199 34.1899 102.601 36.1614 98.3059 36.4879V36.4886ZM98.3834 35.268C100.098 35.278 101.659 34.9581 102.852 34.3793C103.42 34.1202 103.93 33.7495 104.352 33.2892C104.763 32.8575 104.995 32.2854 105 31.6891C105.005 31.0928 104.782 30.5169 104.378 30.0785C103.228 28.7567 101.018 28.0414 98.447 28.0004C96.7344 27.9878 95.1727 28.309 93.9793 28.8851C93.4128 29.1462 92.9035 29.5166 92.4807 29.9752C92.0685 30.4073 91.8363 30.9801 91.8313 31.5772C91.8263 32.1743 92.0487 32.7509 92.4535 33.1898C93.5999 34.5077 95.8138 35.2243 98.3834 35.2667V35.268ZM93.3793 30.2799C94.0039 29.5163 95.9456 28.7692 98.2152 28.8116C99.7324 28.8216 101.094 29.1454 102.013 29.6156C102.398 29.7924 102.743 30.0461 103.027 30.36C103.115 30.4431 103.184 30.5435 103.232 30.6548C103.279 30.7662 103.304 30.8861 103.303 31.0072C103.302 31.1283 103.276 31.2478 103.227 31.3584C103.177 31.4691 103.106 31.5683 103.017 31.6501C102.395 32.413 100.452 33.1574 98.1794 33.1177C96.6622 33.1064 95.3019 32.7826 94.3787 32.3084C93.9955 32.1286 93.6513 31.8755 93.3654 31.5633C93.1977 31.3869 93.0996 31.1556 93.0893 30.9123C93.1058 30.6739 93.2091 30.4487 93.3793 30.2799ZM34.5738 36.9681C33.9651 36.268 33.1035 35.9177 31.9909 35.9164H26.9067L26.5273 37.8416H31.6108C31.8487 37.8288 32.0863 37.8726 32.3041 37.9693C32.5219 38.0659 32.7137 38.2128 32.8638 38.3979C33.1631 38.786 33.2704 39.2893 33.1552 39.7654L33.083 40.0939L33.0578 40.3217H28.3445C27.2392 40.3186 26.168 40.704 25.318 41.4105C24.4406 42.0959 23.8425 43.077 23.6352 44.1708L23.5855 44.3735C23.3484 45.4861 23.5299 46.4066 24.1286 47.1338C24.7279 47.8616 25.5855 48.2245 26.6995 48.2225H33.3532L35.1565 39.6694C35.3784 38.5701 35.1837 37.6694 34.5738 36.9681ZM31.8095 46.2987H27.1054C26.8647 46.3089 26.6248 46.2642 26.404 46.1678C26.1832 46.0714 25.9873 45.9259 25.8312 45.7424C25.5186 45.3715 25.4213 44.9152 25.5398 44.3748L25.5902 44.1721C25.6946 43.6269 25.9973 43.1397 26.4398 42.8046C26.8615 42.4488 27.3942 42.2515 27.9458 42.2469H32.63L31.8088 46.2987H31.8095ZM46.0071 35.9164L43.8547 46.2728H39.0003C38.7595 46.2831 38.5195 46.2381 38.2987 46.1415C38.0779 46.0448 37.882 45.899 37.7261 45.7152C37.4135 45.3443 37.3175 44.8887 37.4361 44.3476L39.1705 35.9177H37.2268L35.4797 44.349C35.2426 45.4636 35.4287 46.3841 36.0374 47.1099C36.6466 47.8351 37.5076 48.1987 38.6202 48.2H43.5063L43.3547 48.9073C43.2277 49.4455 42.9192 49.9235 42.4812 50.261C42.0697 50.6192 41.5445 50.8198 40.999 50.8272H34.3459L33.9327 52.7551H40.5858C41.6825 52.7495 42.7417 52.3548 43.5746 51.6411C44.4483 50.9568 45.0569 49.9898 45.2958 48.906L47.9852 35.9164H46.0077H46.0071Z" fill="#ED1C24"/>
<path d="M66.469 48.2246H59.8153C58.7007 48.2246 57.8444 47.8617 57.2457 47.1359C56.6477 46.4101 56.4662 45.4902 56.7013 44.3756L56.7523 44.1729C56.9561 43.0808 57.5497 42.0999 58.4225 41.4126C59.2725 40.706 60.3438 40.3206 61.4491 40.3239H66.1578L66.1829 40.096L66.2591 39.7676C66.3159 39.5323 66.3192 39.2873 66.2688 39.0507C66.2183 38.814 66.1155 38.5916 65.9677 38.4C65.8174 38.2148 65.6254 38.0678 65.4074 37.9711C65.1894 37.8744 64.9515 37.8308 64.7134 37.8437H59.2424L59.6212 35.9185H65.1015C66.2147 35.9185 67.075 36.2695 67.6836 36.9708C68.2909 37.6715 68.485 38.5682 68.2664 39.6596L66.469 48.2246ZM64.9246 46.3008L65.7339 42.2491H61.0497C60.498 42.2537 59.9652 42.4512 59.5438 42.8073C59.1018 43.1427 58.7992 43.6295 58.6941 44.1743L58.6451 44.3769C58.5259 44.9166 58.6225 45.3723 58.9351 45.7445C59.0912 45.928 59.2871 46.0735 59.5079 46.1699C59.7287 46.2663 59.9686 46.3111 60.2093 46.3008H64.9246ZM79.2401 44.9332C79.1414 45.4444 78.94 45.9302 78.648 46.3612C78.356 46.7922 77.9795 47.1594 77.5414 47.4405C76.6861 48.0057 75.6789 48.2968 74.6539 48.275H68.071L68.473 46.3504H75.0572C76.3566 46.3504 77.0997 45.8783 77.2851 44.9345L77.3911 44.4829C77.5937 43.5391 77.0447 43.0676 75.7453 43.0676H72.7837C71.6863 43.0676 70.8426 42.7895 70.2525 42.2325C69.5777 41.6245 69.3499 40.7888 69.5691 39.7265L69.6711 39.2709C69.7694 38.7596 69.9707 38.2737 70.2627 37.8426C70.5548 37.4116 70.9314 37.0444 71.3698 36.7635C72.2249 36.199 73.2315 35.908 74.2559 35.9291H80.864L80.4832 37.8536H73.8725C72.5718 37.8536 71.8208 38.3258 71.6188 39.2695L71.5181 39.7252C71.3294 40.6689 71.887 41.1411 73.1903 41.1411H76.1513C77.248 41.1411 78.0917 41.4192 78.6838 41.9755C79.3447 42.5842 79.5646 43.4193 79.3421 44.4829L79.2401 44.9332ZM88.1376 48.1988H85.0488C83.9342 48.1988 83.0733 47.8359 82.466 47.1087C81.86 46.3822 81.6739 45.4624 81.909 44.3484L83.2759 37.7404H82.0633L82.4872 35.7589H83.7037L84.6157 31.3535H86.5972L85.6859 35.7589H89.7906L89.3668 37.7404H85.2607L83.8932 44.3484C83.7759 44.8882 83.868 45.3398 84.1766 45.716C84.3298 45.9012 84.5241 46.048 84.744 46.1448C84.964 46.2417 85.2035 46.2858 85.4435 46.2736H88.5184L88.1376 48.1988Z" fill="#231F20"/>
<path d="M25.7221 37.039C25.5009 38.1083 24.9033 39.0626 24.038 39.7285C23.1307 40.4609 22.1446 40.8278 21.079 40.8278H14.4438L12.9206 48.2253H11L14.4669 31.5469H23.0326C24.0969 31.5469 24.9254 31.9124 25.5168 32.6449C26.1089 33.3774 26.2976 34.2741 26.083 35.335L25.7221 37.039ZM23.7995 37.039L24.1492 35.3403C24.2658 34.8079 24.1737 34.3582 23.875 33.9913C23.7243 33.8095 23.5333 33.6652 23.3173 33.5698C23.1012 33.4744 22.8659 33.4305 22.63 33.4416H15.9908L14.8411 38.9351H21.475C22.0158 38.9323 22.5381 38.7375 22.9485 38.3854C23.3813 38.05 23.6835 37.574 23.8029 37.0397H23.7989L23.7995 37.039Z" fill="#ED1C24"/>
<path d="M63.0936 33.2919H55.026C54.4724 33.3105 53.9401 33.5089 53.5094 33.8571C53.0788 34.2053 52.7733 34.6844 52.6392 35.2217L51.8862 38.9019H56.9194L56.5134 40.8569H51.5001L49.9411 48.2438H47.9874L50.6775 35.2197C50.9174 34.1347 51.5171 33.1628 52.3794 32.4619C53.2416 31.7611 54.3156 31.3725 55.4266 31.3594H63.4956L63.0936 33.2919Z" fill="#231F20"/>
<defs>
<linearGradient id="paint0_linear" x1="57" y1="5" x2="57" y2="80" gradientUnits="userSpaceOnUse">
<stop stop-color="#F5F5F5"/>
<stop offset="1" stop-color="white"/>
</linearGradient>
</defs>
</svg>
